<svg width="18" height="21" viewBox="0 0 18 21" fill="none" xmlns="http://www.w3.org/2000/svg">
<path d="M13.3125 3.72635C12.1545 2.38895 10.8511 1.18465 9.42656 0.135727C9.30046 0.0473874 9.15022 0 8.99625 0C8.84228 0 8.69204 0.0473874 8.56594 0.135727C7.14399 1.18509 5.84317 2.38937 4.6875 3.72635C2.11031 6.68604 0.75 9.80604 0.75 12.7498C0.75 14.9378 1.61919 17.0362 3.16637 18.5834C4.71354 20.1306 6.81196 20.9998 9 20.9998C11.188 20.9998 13.2865 20.1306 14.8336 18.5834C16.3808 17.0362 17.25 14.9378 17.25 12.7498C17.25 9.80604 15.8897 6.68604 13.3125 3.72635ZM9 19.4998C7.2104 19.4978 5.49466 18.786 4.22922 17.5206C2.96378 16.2551 2.25199 14.5394 2.25 12.7498C2.25 7.38448 7.45031 2.90604 9 1.68729C10.5497 2.90604 15.75 7.3826 15.75 12.7498C15.748 14.5394 15.0362 16.2551 13.7708 17.5206C12.5053 18.786 10.7896 19.4978 9 19.4998Z" fill="#1F7F82"/>
</svg>
