<svg width="13" height="10" viewBox="0 0 13 10" fill="none" xmlns="http://www.w3.org/2000/svg">
<path d="M0.45983 4.76199C0.45983 4.28584 0.919407 4.28577 1.08529 4.28577L10.2085 4.28577L7.52294 1.21994C7.40557 1.08592 7.33964 0.904157 7.33964 0.714626C7.33964 0.525095 7.40557 0.343327 7.52294 0.209309C7.6403 0.0752905 7.79948 -1.98658e-07 7.96546 -1.91403e-07C8.13143 -1.84147e-07 8.29061 0.0752905 8.40798 0.209309L12.1608 4.49468C12.219 4.56102 12.2651 4.63979 12.2966 4.72649C12.328 4.8132 12.3442 4.90614 12.3442 5C12.3442 5.09386 12.328 5.1868 12.2966 5.27351C12.2651 5.36021 12.2189 5.43898 12.1608 5.50532L8.40798 9.79069C8.34987 9.85705 8.28088 9.90969 8.20495 9.9456C8.12902 9.98152 8.04764 10 7.96546 10C7.88327 10 7.8019 9.98152 7.72597 9.9456C7.65004 9.90969 7.58105 9.85705 7.52294 9.79069C7.46482 9.72433 7.41873 9.64555 7.38728 9.55885C7.35583 9.47215 7.33964 9.37922 7.33964 9.28537C7.33964 9.19153 7.35583 9.0986 7.38728 9.0119C7.41873 8.9252 7.46482 8.84642 7.52294 8.78006L10.2085 5.71423L1.08529 5.71423C1.08529 5.8107 0.619044 5.50553 0.45983 5.23814C0.45983 4.76199 0.45983 4.76199 0.45983 4.76199Z" fill="#181D27"/>
</svg>
