<svg width="20" height="21" viewBox="0 0 20 21" fill="none" xmlns="http://www.w3.org/2000/svg">
<path d="M9.99858 5.99858C9.10856 5.99858 8.23853 6.2625 7.49851 6.75697C6.75849 7.25143 6.18172 7.95424 5.84112 8.7765C5.50053 9.59877 5.41141 10.5036 5.58504 11.3765C5.75868 12.2494 6.18726 13.0512 6.8166 13.6806C7.44593 14.3099 8.24776 14.7385 9.12067 14.9121C9.99359 15.0857 10.8984 14.9966 11.7207 14.656C12.5429 14.3154 13.2457 13.7387 13.7402 12.9986C14.2347 12.2586 14.4986 11.3886 14.4986 10.4986C14.4973 9.30549 14.0228 8.16161 13.1792 7.31797C12.3355 6.47432 11.1917 5.99982 9.99858 5.99858ZM9.99858 13.4986C9.40524 13.4986 8.82522 13.3226 8.33187 12.993C7.83852 12.6633 7.454 12.1948 7.22694 11.6466C6.99988 11.0985 6.94047 10.4953 7.05622 9.91331C7.17198 9.33136 7.4577 8.79682 7.87726 8.37726C8.29682 7.9577 8.83136 7.67198 9.41331 7.55622C9.99525 7.44047 10.5985 7.49988 11.1466 7.72694C11.6948 7.954 12.1633 8.33852 12.493 8.83187C12.8226 9.32522 12.9986 9.90524 12.9986 10.4986C12.9986 11.2942 12.6825 12.0573 12.1199 12.6199C11.5573 13.1825 10.7942 13.4986 9.99858 13.4986ZM18.2486 10.7011C18.2523 10.5661 18.2523 10.4311 18.2486 10.2961L19.6473 8.54858C19.7207 8.45683 19.7714 8.34913 19.7955 8.23417C19.8196 8.1192 19.8164 8.00019 19.7861 7.8867C19.5568 7.02477 19.2138 6.19719 18.7661 5.42577C18.7075 5.32481 18.6261 5.23894 18.5284 5.17498C18.4308 5.11101 18.3195 5.07073 18.2036 5.05733L15.9798 4.80983C15.8873 4.71233 15.7936 4.61858 15.6986 4.52858L15.4361 2.2992C15.4226 2.18315 15.3822 2.07186 15.318 1.9742C15.2539 1.87654 15.1678 1.79521 15.0667 1.7367C14.295 1.28984 13.4675 0.947173 12.6058 0.71764C12.4922 0.68745 12.3732 0.684362 12.2582 0.708626C12.1432 0.732889 12.0356 0.783825 11.9439 0.857328L10.2011 2.24858C10.0661 2.24858 9.93108 2.24858 9.79608 2.24858L8.04858 0.852641C7.95683 0.779298 7.84913 0.728532 7.73417 0.704432C7.6192 0.680332 7.50019 0.683572 7.3867 0.71389C6.52491 0.943603 5.69738 1.28659 4.92577 1.73389C4.82481 1.79251 4.73894 1.87388 4.67498 1.97154C4.61101 2.06919 4.57073 2.18043 4.55733 2.29639L4.30983 4.52389C4.21233 4.61702 4.11858 4.71077 4.02858 4.80514L1.7992 5.06108C1.68315 5.07458 1.57186 5.11501 1.4742 5.17914C1.37654 5.24327 1.29521 5.32933 1.2367 5.43045C0.789841 6.20217 0.447173 7.02968 0.21764 7.89139C0.18745 8.00495 0.184362 8.124 0.208626 8.23897C0.232889 8.35394 0.283825 8.4616 0.357328 8.55327L1.74858 10.2961C1.74858 10.4311 1.74858 10.5661 1.74858 10.7011L0.352641 12.4486C0.279298 12.5403 0.228532 12.648 0.204432 12.763C0.180332 12.878 0.183572 12.997 0.21389 13.1105C0.443193 13.9724 0.786205 14.8 1.23389 15.5714C1.29251 15.6723 1.37388 15.7582 1.47154 15.8222C1.56919 15.8861 1.68043 15.9264 1.79639 15.9398L4.02014 16.1873C4.11327 16.2848 4.20702 16.3786 4.30139 16.4686L4.56108 18.698C4.57458 18.814 4.61501 18.9253 4.67914 19.023C4.74327 19.1206 4.82933 19.2019 4.93045 19.2605C5.70217 19.7073 6.52968 20.05 7.39139 20.2795C7.50495 20.3097 7.624 20.3128 7.73897 20.2885C7.85394 20.2643 7.9616 20.2133 8.05327 20.1398L9.79608 18.7486C9.93108 18.7523 10.0661 18.7523 10.2011 18.7486L11.9486 20.1473C12.0403 20.2207 12.148 20.2714 12.263 20.2955C12.378 20.3196 12.497 20.3164 12.6105 20.2861C13.4724 20.0568 14.3 19.7138 15.0714 19.2661C15.1723 19.2075 15.2582 19.1261 15.3222 19.0284C15.3861 18.9308 15.4264 18.8195 15.4398 18.7036L15.6873 16.4798C15.7848 16.3873 15.8786 16.2936 15.9686 16.1986L18.198 15.9361C18.314 15.9226 18.4253 15.8822 18.523 15.818C18.6206 15.7539 18.7019 15.6678 18.7605 15.5667C19.2073 14.795 19.55 13.9675 19.7795 13.1058C19.8097 12.9922 19.8128 12.8732 19.7885 12.7582C19.7643 12.6432 19.7133 12.5356 19.6398 12.4439L18.2486 10.7011ZM16.7392 10.0917C16.7551 10.3627 16.7551 10.6344 16.7392 10.9055C16.728 11.091 16.7862 11.2741 16.9023 11.4192L18.2326 13.0814C18.08 13.5665 17.8845 14.0371 17.6486 14.4876L15.5298 14.7276C15.3453 14.7481 15.175 14.8363 15.0517 14.9751C14.8712 15.1781 14.679 15.3703 14.4761 15.5508C14.3372 15.674 14.2491 15.8444 14.2286 16.0289L13.9933 18.1458C13.5428 18.3818 13.0722 18.5773 12.587 18.7298L10.9239 17.3995C10.7908 17.2932 10.6255 17.2353 10.4551 17.2355H10.4101C10.1391 17.2514 9.86741 17.2514 9.59639 17.2355C9.41084 17.2243 9.22776 17.2824 9.08264 17.3986L7.41577 18.7298C6.93064 18.5772 6.46004 18.3817 6.00952 18.1458L5.76952 16.0298C5.74903 15.8453 5.66085 15.675 5.52202 15.5517C5.31906 15.3712 5.12685 15.179 4.94639 14.9761C4.82314 14.8372 4.65278 14.7491 4.46827 14.7286L2.35139 14.4923C2.11532 14.0419 1.91986 13.5712 1.76733 13.0861L3.09764 11.423C3.2138 11.2778 3.27193 11.0948 3.26077 10.9092C3.24483 10.6382 3.24483 10.3665 3.26077 10.0955C3.27193 9.90991 3.2138 9.72682 3.09764 9.5817L1.76733 7.91577C1.91998 7.43064 2.11543 6.96004 2.35139 6.50952L4.46733 6.26952C4.65184 6.24903 4.8222 6.16085 4.94545 6.02202C5.12591 5.81906 5.31812 5.62685 5.52108 5.44639C5.66046 5.32306 5.74901 5.15231 5.76952 4.96733L6.00483 2.85139C6.4553 2.61532 6.92591 2.41986 7.41108 2.26733L9.0742 3.59764C9.21932 3.7138 9.40241 3.77193 9.58795 3.76077C9.85897 3.74483 10.1307 3.74483 10.4017 3.76077C10.5873 3.77193 10.7703 3.7138 10.9155 3.59764L12.5814 2.26733C13.0665 2.41998 13.5371 2.61543 13.9876 2.85139L14.2276 4.96733C14.2481 5.15184 14.3363 5.3222 14.4751 5.44545C14.6781 5.62591 14.8703 5.81812 15.0508 6.02108C15.174 6.15991 15.3444 6.2481 15.5289 6.26858L17.6458 6.50389C17.8818 6.95436 18.0773 7.42497 18.2298 7.91014L16.8995 9.57327C16.7822 9.71961 16.724 9.90457 16.7364 10.0917H16.7392Z" fill="#1F7F82"/>
</svg>
